<mxfile host="65bd71144e">
    <diagram id="dKKx0QM5cb-7N841_KJs" name="Page-1">
        <mxGraphModel dx="1155" dy="431" grid="1" gridSize="10" guides="1" tooltips="1" connect="1" arrows="1" fold="1" page="1" pageScale="1" pageWidth="850" pageHeight="1100" background="#ffffff" math="0" shadow="0">
            <root>
                <mxCell id="0"/>
                <mxCell id="1" parent="0"/>
                <mxCell id="57" value="" style="rounded=0;whiteSpace=wrap;html=1;glass=1;strokeColor=#000000;strokeWidth=1;fontColor=#000000;fillColor=none;" vertex="1" parent="1">
                    <mxGeometry x="222" y="940" width="1968" height="464" as="geometry"/>
                </mxCell>
                <mxCell id="58" style="edgeStyle=none;html=1;exitX=0.5;exitY=0.5;exitDx=0;exitDy=0;exitPerimeter=0;entryX=0;entryY=0.5;entryDx=0;entryDy=0;entryPerimeter=0;fontColor=#000000;strokeColor=#000000;startArrow=none;" edge="1" parent="1" source="98" target="65">
                    <mxGeometry relative="1" as="geometry"/>
                </mxCell>
                <mxCell id="59" value="&lt;font color=&quot;#000000&quot;&gt;Sender&lt;br&gt;&lt;/font&gt;" style="shape=umlActor;verticalLabelPosition=bottom;verticalAlign=top;html=1;outlineConnect=0;glass=1;strokeColor=#000000;strokeWidth=1;fillColor=none;" vertex="1" parent="1">
                    <mxGeometry x="91" y="1159" width="30" height="60" as="geometry"/>
                </mxCell>
                <mxCell id="60" style="edgeStyle=none;html=1;exitX=0.25;exitY=0.1;exitDx=0;exitDy=0;exitPerimeter=0;entryX=0.75;entryY=0.1;entryDx=0;entryDy=0;entryPerimeter=0;fontColor=#000000;" edge="1" parent="1" source="59" target="59">
                    <mxGeometry relative="1" as="geometry"/>
                </mxCell>
                <mxCell id="65" value="API Gateway" style="sketch=0;points=[[0,0,0],[0.25,0,0],[0.5,0,0],[0.75,0,0],[1,0,0],[0,1,0],[0.25,1,0],[0.5,1,0],[0.75,1,0],[1,1,0],[0,0.25,0],[0,0.5,0],[0,0.75,0],[1,0.25,0],[1,0.5,0],[1,0.75,0]];outlineConnect=0;fontColor=#232F3E;gradientColor=#945DF2;gradientDirection=north;fillColor=#5A30B5;strokeColor=#ffffff;dashed=0;verticalLabelPosition=bottom;verticalAlign=top;align=center;html=1;fontSize=12;fontStyle=0;aspect=fixed;shape=mxgraph.aws4.resourceIcon;resIcon=mxgraph.aws4.api_gateway;glass=1;strokeWidth=1;" vertex="1" parent="1">
                    <mxGeometry x="590" y="1150.5" width="69" height="69" as="geometry"/>
                </mxCell>
                <mxCell id="66" value="&lt;div style=&quot;text-align: left;&quot;&gt;&lt;span style=&quot;background-color: initial;&quot;&gt;APIs Exposed:&lt;/span&gt;&lt;/div&gt;&lt;div style=&quot;text-align: left;&quot;&gt;&lt;span style=&quot;background-color: initial;&quot;&gt;1.&amp;nbsp;&lt;/span&gt;&lt;strong style=&quot;background-color: initial;&quot;&gt;[GET] &lt;code&gt;/get_balance&lt;/code&gt;&lt;/strong&gt;&lt;span style=&quot;background-color: initial;&quot;&gt;: Fetch the current user balance from DynamoDB&lt;/span&gt;&lt;/div&gt;&lt;strong style=&quot;background-color: initial;&quot;&gt;&lt;div style=&quot;text-align: left;&quot;&gt;&lt;strong style=&quot;background-color: initial;&quot;&gt;2. [POST] &lt;code&gt;/add_to_balance&lt;/code&gt;&lt;/strong&gt;&lt;span style=&quot;background-color: initial; font-weight: normal;&quot;&gt;: Add a specified amount to another user's balance.&lt;/span&gt;&lt;/div&gt;&lt;/strong&gt;&lt;strong style=&quot;background-color: initial;&quot;&gt;&lt;div style=&quot;text-align: left;&quot;&gt;&lt;strong style=&quot;background-color: initial;&quot;&gt;3. [POST] &lt;code&gt;/subtract_from_balance&lt;/code&gt;&lt;/strong&gt;&lt;span style=&quot;background-color: initial; font-weight: normal;&quot;&gt;: Subtract a specified amount from the current userâ€™s balance.&lt;/span&gt;&lt;/div&gt;&lt;/strong&gt;&lt;h4&gt;&lt;/h4&gt;" style="text;html=1;align=center;verticalAlign=middle;resizable=0;points=[];autosize=1;strokeColor=#000000;fillColor=none;fontColor=#000000;" vertex="1" parent="1">
                    <mxGeometry x="222" y="830" width="550" height="90" as="geometry"/>
                </mxCell>
                <mxCell id="67" style="edgeStyle=none;html=1;exitX=0.145;exitY=0.145;exitDx=0;exitDy=0;exitPerimeter=0;entryX=1;entryY=0.5;entryDx=0;entryDy=0;entryPerimeter=0;labelBackgroundColor=#ffffff;strokeColor=#000000;fontColor=#000000;" edge="1" parent="1" source="68">
                    <mxGeometry relative="1" as="geometry">
                        <mxPoint x="737" y="1047.5000000000002" as="targetPoint"/>
                    </mxGeometry>
                </mxCell>
                <mxCell id="68" value="Lambda&amp;nbsp;&lt;strong style=&quot;background-color: initial; text-align: left;&quot;&gt;&lt;code style=&quot;font-family: var(--monaco-monospace-font);&quot;&gt;/subtract_from_balance&lt;/code&gt;&lt;/strong&gt;" style="outlineConnect=0;dashed=0;verticalLabelPosition=bottom;verticalAlign=top;align=center;html=1;shape=mxgraph.aws3.lambda_function;fillColor=#F58534;gradientColor=none;glass=1;strokeColor=#000000;strokeWidth=1;fontColor=#000000;" vertex="1" parent="1">
                    <mxGeometry x="933" y="1147" width="69" height="72" as="geometry"/>
                </mxCell>
                <mxCell id="69" style="edgeStyle=none;html=1;exitX=1;exitY=0.5;exitDx=0;exitDy=0;exitPerimeter=0;labelBackgroundColor=#ffffff;strokeColor=#000000;fontColor=#000000;entryX=0;entryY=0.5;entryDx=0;entryDy=0;entryPerimeter=0;" edge="1" parent="1" source="70" target="122">
                    <mxGeometry relative="1" as="geometry">
                        <mxPoint x="1110" y="1190" as="targetPoint"/>
                    </mxGeometry>
                </mxCell>
                <mxCell id="70" value="Lambda&amp;nbsp;&lt;strong style=&quot;text-align: left; background-color: initial;&quot;&gt;&lt;code style=&quot;font-family: var(--monaco-monospace-font);&quot;&gt;/get_balance&lt;/code&gt;&lt;/strong&gt;" style="outlineConnect=0;dashed=0;verticalLabelPosition=bottom;verticalAlign=top;align=center;html=1;shape=mxgraph.aws3.lambda_function;fillColor=#F58534;gradientColor=none;glass=1;strokeColor=#000000;strokeWidth=1;fontColor=#000000;" vertex="1" parent="1">
                    <mxGeometry x="933" y="1013" width="69" height="72" as="geometry"/>
                </mxCell>
                <mxCell id="71" style="edgeStyle=none;html=1;exitX=0;exitY=0.5;exitDx=0;exitDy=0;exitPerimeter=0;entryX=1;entryY=0.5;entryDx=0;entryDy=0;entryPerimeter=0;labelBackgroundColor=#ffffff;strokeColor=#000000;fontColor=#000000;" edge="1" parent="1" source="72">
                    <mxGeometry relative="1" as="geometry">
                        <mxPoint x="742" y="1330.5" as="targetPoint"/>
                    </mxGeometry>
                </mxCell>
                <mxCell id="72" value="Lambda&amp;nbsp;&lt;strong style=&quot;background-color: initial; text-align: left;&quot;&gt;&lt;code style=&quot;font-family: var(--monaco-monospace-font);&quot;&gt;/add_to_balance&lt;/code&gt;&lt;/strong&gt;" style="outlineConnect=0;dashed=0;verticalLabelPosition=bottom;verticalAlign=top;align=center;html=1;shape=mxgraph.aws3.lambda_function;fillColor=#F58534;gradientColor=none;glass=1;strokeColor=#000000;strokeWidth=1;fontColor=#000000;" vertex="1" parent="1">
                    <mxGeometry x="933" y="1293" width="69" height="72" as="geometry"/>
                </mxCell>
                <mxCell id="73" value="HTTP Request" style="text;html=1;align=center;verticalAlign=middle;resizable=0;points=[];autosize=1;strokeColor=none;fillColor=none;fontColor=#000000;" vertex="1" parent="1">
                    <mxGeometry x="116" y="1185" width="100" height="30" as="geometry"/>
                </mxCell>
                <mxCell id="74" value="" style="endArrow=classic;startArrow=classic;html=1;labelBackgroundColor=#ffffff;strokeColor=#000000;fontColor=#000000;exitX=1;exitY=0.5;exitDx=0;exitDy=0;exitPerimeter=0;entryX=0;entryY=0.5;entryDx=0;entryDy=0;entryPerimeter=0;" edge="1" parent="1" source="68" target="122">
                    <mxGeometry width="50" height="50" relative="1" as="geometry">
                        <mxPoint x="793" y="1189.5" as="sourcePoint"/>
                        <mxPoint x="1110" y="1183" as="targetPoint"/>
                    </mxGeometry>
                </mxCell>
                <mxCell id="75" value="" style="endArrow=classic;startArrow=classic;html=1;labelBackgroundColor=#ffffff;strokeColor=#000000;fontColor=#000000;exitX=1;exitY=0.5;exitDx=0;exitDy=0;exitPerimeter=0;entryX=0;entryY=0.5;entryDx=0;entryDy=0;entryPerimeter=0;" edge="1" parent="1" source="72" target="122">
                    <mxGeometry width="50" height="50" relative="1" as="geometry">
                        <mxPoint x="793" y="1189.5" as="sourcePoint"/>
                        <mxPoint x="1110" y="1180" as="targetPoint"/>
                    </mxGeometry>
                </mxCell>
                <mxCell id="78" value="" style="outlineConnect=0;dashed=0;verticalLabelPosition=bottom;verticalAlign=top;align=center;html=1;shape=mxgraph.aws3.cloud_2;fillColor=#F58534;gradientColor=none;glass=1;strokeColor=#000000;strokeWidth=1;fontColor=#000000;" vertex="1" parent="1">
                    <mxGeometry x="222" y="940" width="50" height="50" as="geometry"/>
                </mxCell>
                <mxCell id="83" value="&lt;font color=&quot;#000000&quot;&gt;Recipient&lt;br&gt;&lt;/font&gt;" style="shape=umlActor;verticalLabelPosition=bottom;verticalAlign=top;html=1;outlineConnect=0;glass=1;strokeColor=#000000;strokeWidth=1;fillColor=none;" vertex="1" parent="1">
                    <mxGeometry x="91" y="1305" width="30" height="60" as="geometry"/>
                </mxCell>
                <mxCell id="84" style="edgeStyle=none;html=1;exitX=0;exitY=0.5;exitDx=0;exitDy=0;exitPerimeter=0;entryX=0.5;entryY=0.5;entryDx=0;entryDy=0;entryPerimeter=0;labelBackgroundColor=#ffffff;strokeColor=#000000;fontColor=#000000;" edge="1" parent="1" source="85" target="59">
                    <mxGeometry relative="1" as="geometry"/>
                </mxCell>
                <mxCell id="85" value="Sender SNS" style="sketch=0;points=[[0,0,0],[0.25,0,0],[0.5,0,0],[0.75,0,0],[1,0,0],[0,1,0],[0.25,1,0],[0.5,1,0],[0.75,1,0],[1,1,0],[0,0.25,0],[0,0.5,0],[0,0.75,0],[1,0.25,0],[1,0.5,0],[1,0.75,0]];outlineConnect=0;fontColor=#232F3E;gradientColor=#FF4F8B;gradientDirection=north;fillColor=#BC1356;strokeColor=#ffffff;dashed=0;verticalLabelPosition=bottom;verticalAlign=top;align=center;html=1;fontSize=12;fontStyle=0;aspect=fixed;shape=mxgraph.aws4.resourceIcon;resIcon=mxgraph.aws4.sns;glass=1;strokeWidth=1;" vertex="1" parent="1">
                    <mxGeometry x="711" y="1008.5" width="78" height="78" as="geometry"/>
                </mxCell>
                <mxCell id="86" style="edgeStyle=none;html=1;exitX=0;exitY=0.5;exitDx=0;exitDy=0;exitPerimeter=0;entryX=0.5;entryY=0.5;entryDx=0;entryDy=0;entryPerimeter=0;labelBackgroundColor=#ffffff;strokeColor=#000000;fontColor=#000000;" edge="1" parent="1" source="87" target="83">
                    <mxGeometry relative="1" as="geometry"/>
                </mxCell>
                <mxCell id="87" value="Recipient SNS" style="sketch=0;points=[[0,0,0],[0.25,0,0],[0.5,0,0],[0.75,0,0],[1,0,0],[0,1,0],[0.25,1,0],[0.5,1,0],[0.75,1,0],[1,1,0],[0,0.25,0],[0,0.5,0],[0,0.75,0],[1,0.25,0],[1,0.5,0],[1,0.75,0]];outlineConnect=0;fontColor=#232F3E;gradientColor=#FF4F8B;gradientDirection=north;fillColor=#BC1356;strokeColor=#ffffff;dashed=0;verticalLabelPosition=bottom;verticalAlign=top;align=center;html=1;fontSize=12;fontStyle=0;aspect=fixed;shape=mxgraph.aws4.resourceIcon;resIcon=mxgraph.aws4.sns;glass=1;strokeWidth=1;" vertex="1" parent="1">
                    <mxGeometry x="716" y="1291.5" width="78" height="78" as="geometry"/>
                </mxCell>
                <mxCell id="92" value="" style="edgeStyle=none;html=1;exitX=0.5;exitY=0.5;exitDx=0;exitDy=0;exitPerimeter=0;entryX=0;entryY=0.5;entryDx=0;entryDy=0;entryPerimeter=0;fontColor=#000000;strokeColor=#000000;endArrow=none;" edge="1" parent="1" source="59" target="91">
                    <mxGeometry relative="1" as="geometry">
                        <mxPoint x="105.99999999999994" y="1189" as="sourcePoint"/>
                        <mxPoint x="510" y="1184.5" as="targetPoint"/>
                    </mxGeometry>
                </mxCell>
                <mxCell id="91" value="Amplify Frontend Hosting" style="sketch=0;points=[[0,0,0],[0.25,0,0],[0.5,0,0],[0.75,0,0],[1,0,0],[0,1,0],[0.25,1,0],[0.5,1,0],[0.75,1,0],[1,1,0],[0,0.25,0],[0,0.5,0],[0,0.75,0],[1,0.25,0],[1,0.5,0],[1,0.75,0]];outlineConnect=0;fontColor=#232F3E;gradientColor=#F54749;gradientDirection=north;fillColor=#C7131F;strokeColor=#ffffff;dashed=0;verticalLabelPosition=bottom;verticalAlign=top;align=center;html=1;fontSize=12;fontStyle=0;aspect=fixed;shape=mxgraph.aws4.resourceIcon;resIcon=mxgraph.aws4.amplify;glass=1;strokeWidth=1;" vertex="1" parent="1">
                    <mxGeometry x="330" y="1144.5" width="78" height="78" as="geometry"/>
                </mxCell>
                <mxCell id="95" style="edgeStyle=none;html=1;exitX=1;exitY=0.5;exitDx=0;exitDy=0;exitPerimeter=0;entryX=0;entryY=0.5;entryDx=0;entryDy=0;entryPerimeter=0;labelBackgroundColor=#ffffff;strokeColor=#000000;fontColor=#000000;" edge="1" parent="1" source="100" target="70">
                    <mxGeometry relative="1" as="geometry"/>
                </mxCell>
                <mxCell id="96" style="edgeStyle=none;html=1;exitX=1;exitY=0.5;exitDx=0;exitDy=0;exitPerimeter=0;entryX=0;entryY=0.5;entryDx=0;entryDy=0;entryPerimeter=0;labelBackgroundColor=#ffffff;strokeColor=#000000;fontColor=#000000;" edge="1" parent="1" source="100" target="68">
                    <mxGeometry relative="1" as="geometry"/>
                </mxCell>
                <mxCell id="97" style="edgeStyle=none;html=1;exitX=1;exitY=0.5;exitDx=0;exitDy=0;exitPerimeter=0;entryX=0;entryY=0.5;entryDx=0;entryDy=0;entryPerimeter=0;labelBackgroundColor=#ffffff;strokeColor=#000000;fontColor=#000000;" edge="1" parent="1" source="100" target="72">
                    <mxGeometry relative="1" as="geometry"/>
                </mxCell>
                <mxCell id="99" value="" style="edgeStyle=none;html=1;exitX=0.5;exitY=0.5;exitDx=0;exitDy=0;exitPerimeter=0;entryX=0;entryY=0.5;entryDx=0;entryDy=0;entryPerimeter=0;fontColor=#000000;strokeColor=#000000;startArrow=none;endArrow=none;" edge="1" parent="1" source="91" target="98">
                    <mxGeometry relative="1" as="geometry">
                        <mxPoint x="369" y="1183.5" as="sourcePoint"/>
                        <mxPoint x="590" y="1185" as="targetPoint"/>
                    </mxGeometry>
                </mxCell>
                <mxCell id="98" value="Route53" style="sketch=0;points=[[0,0,0],[0.25,0,0],[0.5,0,0],[0.75,0,0],[1,0,0],[0,1,0],[0.25,1,0],[0.5,1,0],[0.75,1,0],[1,1,0],[0,0.25,0],[0,0.5,0],[0,0.75,0],[1,0.25,0],[1,0.5,0],[1,0.75,0]];outlineConnect=0;fontColor=#232F3E;gradientColor=#945DF2;gradientDirection=north;fillColor=#5A30B5;strokeColor=#ffffff;dashed=0;verticalLabelPosition=bottom;verticalAlign=top;align=center;html=1;fontSize=12;fontStyle=0;aspect=fixed;shape=mxgraph.aws4.resourceIcon;resIcon=mxgraph.aws4.route_53;glass=1;strokeWidth=1;" vertex="1" parent="1">
                    <mxGeometry x="458" y="1145.5" width="78" height="78" as="geometry"/>
                </mxCell>
                <mxCell id="101" value="" style="edgeStyle=none;html=1;exitX=1;exitY=0.5;exitDx=0;exitDy=0;exitPerimeter=0;labelBackgroundColor=#ffffff;strokeColor=#000000;fontColor=#000000;endArrow=none;" edge="1" parent="1" source="65" target="100">
                    <mxGeometry relative="1" as="geometry">
                        <mxPoint x="659.0000000000002" y="1185" as="sourcePoint"/>
                        <mxPoint x="930" y="1183.6887096774194" as="targetPoint"/>
                    </mxGeometry>
                </mxCell>
                <mxCell id="100" value="Simple Queue Serv ice" style="sketch=0;points=[[0,0,0],[0.25,0,0],[0.5,0,0],[0.75,0,0],[1,0,0],[0,1,0],[0.25,1,0],[0.5,1,0],[0.75,1,0],[1,1,0],[0,0.25,0],[0,0.5,0],[0,0.75,0],[1,0.25,0],[1,0.5,0],[1,0.75,0]];outlineConnect=0;fontColor=#232F3E;gradientColor=#FF4F8B;gradientDirection=north;fillColor=#BC1356;strokeColor=#ffffff;dashed=0;verticalLabelPosition=bottom;verticalAlign=top;align=center;html=1;fontSize=12;fontStyle=0;aspect=fixed;shape=mxgraph.aws4.resourceIcon;resIcon=mxgraph.aws4.sqs;glass=1;strokeWidth=1;" vertex="1" parent="1">
                    <mxGeometry x="708" y="1144.5" width="78" height="78" as="geometry"/>
                </mxCell>
                <mxCell id="121" value="" style="group" vertex="1" connectable="0" parent="1">
                    <mxGeometry x="222" y="1440" width="558" height="130" as="geometry"/>
                </mxCell>
                <mxCell id="103" value="" style="rounded=1;whiteSpace=wrap;html=1;glass=1;strokeColor=#000000;strokeWidth=1;fontColor=#000000;fillColor=none;" vertex="1" parent="121">
                    <mxGeometry x="41" width="517" height="130" as="geometry"/>
                </mxCell>
                <mxCell id="102" value="" style="sketch=0;points=[[0,0,0],[0.25,0,0],[0.5,0,0],[0.75,0,0],[1,0,0],[0,1,0],[0.25,1,0],[0.5,1,0],[0.75,1,0],[1,1,0],[0,0.25,0],[0,0.5,0],[0,0.75,0],[1,0.25,0],[1,0.5,0],[1,0.75,0]];outlineConnect=0;fontColor=#232F3E;gradientColor=#F54749;gradientDirection=north;fillColor=#C7131F;strokeColor=#ffffff;dashed=0;verticalLabelPosition=bottom;verticalAlign=top;align=center;html=1;fontSize=12;fontStyle=0;aspect=fixed;shape=mxgraph.aws4.resourceIcon;resIcon=mxgraph.aws4.key_management_service;glass=1;strokeWidth=1;" vertex="1" parent="121">
                    <mxGeometry y="20" width="78" height="78" as="geometry"/>
                </mxCell>
                <mxCell id="108" value="" style="group" vertex="1" connectable="0" parent="121">
                    <mxGeometry x="88" y="30.25" width="140" height="87.5" as="geometry"/>
                </mxCell>
                <mxCell id="106" value="" style="group" vertex="1" connectable="0" parent="108">
                    <mxGeometry x="27.25" width="85.5" height="57.5" as="geometry"/>
                </mxCell>
                <mxCell id="105" value="" style="ellipse;whiteSpace=wrap;html=1;glass=1;strokeColor=#000000;strokeWidth=1;fontColor=#000000;fillColor=none;" vertex="1" parent="106">
                    <mxGeometry width="85.5" height="57.5" as="geometry"/>
                </mxCell>
                <mxCell id="104" value="" style="points=[[0,0.5,0],[0.24,0,0],[0.5,0.28,0],[0.995,0.475,0],[0.5,0.72,0],[0.24,1,0]];verticalLabelPosition=bottom;sketch=0;html=1;verticalAlign=top;aspect=fixed;align=center;pointerEvents=1;shape=mxgraph.cisco19.key;fillColor=#005073;strokeColor=none;glass=1;strokeWidth=1;fontColor=#000000;" vertex="1" parent="106">
                    <mxGeometry x="18.5" y="15.25" width="50" height="22.5" as="geometry"/>
                </mxCell>
                <mxCell id="107" value="Customer Master Key" style="text;html=1;align=center;verticalAlign=middle;resizable=0;points=[];autosize=1;strokeColor=none;fillColor=none;fontColor=#000000;" vertex="1" parent="108">
                    <mxGeometry y="57.5" width="140" height="30" as="geometry"/>
                </mxCell>
                <mxCell id="109" value="" style="points=[[0,0.5,0],[0.24,0,0],[0.5,0.28,0],[0.995,0.475,0],[0.5,0.72,0],[0.24,1,0]];verticalLabelPosition=bottom;sketch=0;html=1;verticalAlign=top;aspect=fixed;align=center;pointerEvents=1;shape=mxgraph.cisco19.key;fillColor=#008a00;strokeColor=#005700;glass=1;strokeWidth=1;fontColor=#ffffff;" vertex="1" parent="121">
                    <mxGeometry x="338" y="47.75" width="50" height="22.5" as="geometry"/>
                </mxCell>
                <mxCell id="111" value="" style="endArrow=classic;html=1;labelBackgroundColor=#ffffff;strokeColor=#000000;fontColor=#000000;" edge="1" parent="121">
                    <mxGeometry width="50" height="50" relative="1" as="geometry">
                        <mxPoint x="228" y="60" as="sourcePoint"/>
                        <mxPoint x="308" y="60" as="targetPoint"/>
                    </mxGeometry>
                </mxCell>
                <mxCell id="112" value="Plaintext Data Key" style="text;html=1;align=center;verticalAlign=middle;resizable=0;points=[];autosize=1;strokeColor=none;fillColor=none;fontColor=#000000;" vertex="1" parent="121">
                    <mxGeometry x="303" y="70.25" width="120" height="30" as="geometry"/>
                </mxCell>
                <mxCell id="115" value="" style="group;strokeWidth=20;" vertex="1" connectable="0" parent="121">
                    <mxGeometry x="418" y="50" width="20" height="20" as="geometry"/>
                </mxCell>
                <mxCell id="113" value="" style="endArrow=none;html=1;labelBackgroundColor=#ffffff;strokeColor=#000000;fontColor=#000000;strokeWidth=2;" edge="1" parent="115">
                    <mxGeometry width="50" height="50" relative="1" as="geometry">
                        <mxPoint x="10" y="20" as="sourcePoint"/>
                        <mxPoint x="10" as="targetPoint"/>
                    </mxGeometry>
                </mxCell>
                <mxCell id="114" value="" style="endArrow=none;html=1;labelBackgroundColor=#ffffff;strokeColor=#000000;fontColor=#000000;endSize=6;strokeWidth=2;" edge="1" parent="115">
                    <mxGeometry width="50" height="50" relative="1" as="geometry">
                        <mxPoint y="10" as="sourcePoint"/>
                        <mxPoint x="20" y="10" as="targetPoint"/>
                    </mxGeometry>
                </mxCell>
                <mxCell id="119" value="" style="shape=card;whiteSpace=wrap;html=1;glass=1;strokeColor=#000000;strokeWidth=2;fontColor=#000000;fillColor=none;" vertex="1" parent="121">
                    <mxGeometry x="458" y="26.5" width="50" height="65" as="geometry"/>
                </mxCell>
                <mxCell id="120" value="Encrypted Data" style="text;html=1;align=center;verticalAlign=middle;resizable=0;points=[];autosize=1;strokeColor=none;fillColor=none;fontColor=#000000;" vertex="1" parent="121">
                    <mxGeometry x="428" y="91.5" width="110" height="30" as="geometry"/>
                </mxCell>
                <mxCell id="137" style="edgeStyle=none;html=1;exitX=1;exitY=0.5;exitDx=0;exitDy=0;exitPerimeter=0;labelBackgroundColor=#ffffff;strokeColor=#000000;strokeWidth=2;fontColor=#000000;endSize=6;" edge="1" parent="1" source="122" target="136">
                    <mxGeometry relative="1" as="geometry"/>
                </mxCell>
                <mxCell id="122" value="Key Management Service" style="sketch=0;points=[[0,0,0],[0.25,0,0],[0.5,0,0],[0.75,0,0],[1,0,0],[0,1,0],[0.25,1,0],[0.5,1,0],[0.75,1,0],[1,1,0],[0,0.25,0],[0,0.5,0],[0,0.75,0],[1,0.25,0],[1,0.5,0],[1,0.75,0]];outlineConnect=0;fontColor=#232F3E;gradientColor=#F54749;gradientDirection=north;fillColor=#C7131F;strokeColor=#ffffff;dashed=0;verticalLabelPosition=bottom;verticalAlign=top;align=center;html=1;fontSize=12;fontStyle=0;aspect=fixed;shape=mxgraph.aws4.resourceIcon;resIcon=mxgraph.aws4.key_management_service;glass=1;strokeWidth=2;" vertex="1" parent="1">
                    <mxGeometry x="1140" y="1146" width="78" height="78" as="geometry"/>
                </mxCell>
                <mxCell id="130" style="edgeStyle=none;html=1;exitX=1;exitY=0.5;exitDx=0;exitDy=0;exitPerimeter=0;labelBackgroundColor=#ffffff;strokeColor=#000000;strokeWidth=2;fontColor=#000000;endSize=6;" edge="1" parent="1" source="125" target="129">
                    <mxGeometry relative="1" as="geometry">
                        <Array as="points">
                            <mxPoint x="1634" y="1052"/>
                        </Array>
                    </mxGeometry>
                </mxCell>
                <mxCell id="125" value="Aurora 1" style="sketch=0;points=[[0,0,0],[0.25,0,0],[0.5,0,0],[0.75,0,0],[1,0,0],[0,1,0],[0.25,1,0],[0.5,1,0],[0.75,1,0],[1,1,0],[0,0.25,0],[0,0.5,0],[0,0.75,0],[1,0.25,0],[1,0.5,0],[1,0.75,0]];outlineConnect=0;fontColor=#232F3E;gradientColor=#4D72F3;gradientDirection=north;fillColor=#3334B9;strokeColor=#ffffff;dashed=0;verticalLabelPosition=bottom;verticalAlign=top;align=center;html=1;fontSize=12;fontStyle=0;aspect=fixed;shape=mxgraph.aws4.resourceIcon;resIcon=mxgraph.aws4.aurora;glass=1;strokeWidth=2;" vertex="1" parent="1">
                    <mxGeometry x="1439" y="1013" width="78" height="78" as="geometry"/>
                </mxCell>
                <mxCell id="132" style="edgeStyle=none;html=1;exitX=1;exitY=0.5;exitDx=0;exitDy=0;exitPerimeter=0;entryX=0;entryY=0.5;entryDx=0;entryDy=0;entryPerimeter=0;labelBackgroundColor=#ffffff;strokeColor=#000000;strokeWidth=2;fontColor=#000000;endSize=6;" edge="1" parent="1" source="127" target="128">
                    <mxGeometry relative="1" as="geometry"/>
                </mxCell>
                <mxCell id="127" value="Amazon S3" style="sketch=0;points=[[0,0,0],[0.25,0,0],[0.5,0,0],[0.75,0,0],[1,0,0],[0,1,0],[0.25,1,0],[0.5,1,0],[0.75,1,0],[1,1,0],[0,0.25,0],[0,0.5,0],[0,0.75,0],[1,0.25,0],[1,0.5,0],[1,0.75,0]];outlineConnect=0;fontColor=#232F3E;gradientColor=#60A337;gradientDirection=north;fillColor=#277116;strokeColor=#ffffff;dashed=0;verticalLabelPosition=bottom;verticalAlign=top;align=center;html=1;fontSize=12;fontStyle=0;aspect=fixed;shape=mxgraph.aws4.resourceIcon;resIcon=mxgraph.aws4.s3;glass=1;strokeWidth=2;" vertex="1" parent="1">
                    <mxGeometry x="1739" y="1147.5" width="78" height="78" as="geometry"/>
                </mxCell>
                <mxCell id="128" value="Amazon S3 Glacier" style="sketch=0;points=[[0,0,0],[0.25,0,0],[0.5,0,0],[0.75,0,0],[1,0,0],[0,1,0],[0.25,1,0],[0.5,1,0],[0.75,1,0],[1,1,0],[0,0.25,0],[0,0.5,0],[0,0.75,0],[1,0.25,0],[1,0.5,0],[1,0.75,0]];outlineConnect=0;fontColor=#232F3E;gradientColor=#60A337;gradientDirection=north;fillColor=#277116;strokeColor=#ffffff;dashed=0;verticalLabelPosition=bottom;verticalAlign=top;align=center;html=1;fontSize=12;fontStyle=0;aspect=fixed;shape=mxgraph.aws4.resourceIcon;resIcon=mxgraph.aws4.glacier;glass=1;strokeWidth=2;" vertex="1" parent="1">
                    <mxGeometry x="2039" y="1144.5" width="78" height="78" as="geometry"/>
                </mxCell>
                <mxCell id="131" style="edgeStyle=none;html=1;exitX=1;exitY=0.5;exitDx=0;exitDy=0;exitPerimeter=0;entryX=0;entryY=0.5;entryDx=0;entryDy=0;entryPerimeter=0;labelBackgroundColor=#ffffff;strokeColor=#000000;strokeWidth=2;fontColor=#000000;endSize=6;" edge="1" parent="1" source="129" target="127">
                    <mxGeometry relative="1" as="geometry"/>
                </mxCell>
                <mxCell id="129" value="Lambda&amp;nbsp;&lt;strong style=&quot;text-align: left; background-color: initial;&quot;&gt;&lt;code style=&quot;font-family: var(--monaco-monospace-font);&quot;&gt;/backup_data&lt;/code&gt;&lt;/strong&gt;" style="outlineConnect=0;dashed=0;verticalLabelPosition=bottom;verticalAlign=top;align=center;html=1;shape=mxgraph.aws3.lambda_function;fillColor=#F58534;gradientColor=none;glass=1;strokeColor=#000000;strokeWidth=1;fontColor=#000000;" vertex="1" parent="1">
                    <mxGeometry x="1599" y="1150.5" width="69" height="72" as="geometry"/>
                </mxCell>
                <mxCell id="133" value="Lambda&amp;nbsp;&lt;strong style=&quot;text-align: left; background-color: initial;&quot;&gt;&lt;code style=&quot;font-family: var(--monaco-monospace-font);&quot;&gt;/backup_cold_data&lt;/code&gt;&lt;/strong&gt;" style="outlineConnect=0;dashed=0;verticalLabelPosition=bottom;verticalAlign=top;align=center;html=1;shape=mxgraph.aws3.lambda_function;fillColor=#F58534;gradientColor=none;glass=1;strokeColor=#000000;strokeWidth=1;fontColor=#000000;" vertex="1" parent="1">
                    <mxGeometry x="1889" y="1149" width="69" height="72" as="geometry"/>
                </mxCell>
                <mxCell id="135" style="edgeStyle=none;html=1;exitX=1;exitY=0.5;exitDx=0;exitDy=0;exitPerimeter=0;entryX=0.5;entryY=1;entryDx=0;entryDy=0;entryPerimeter=0;labelBackgroundColor=#ffffff;strokeColor=#000000;strokeWidth=2;fontColor=#000000;endSize=6;" edge="1" parent="1" source="134" target="129">
                    <mxGeometry relative="1" as="geometry">
                        <Array as="points">
                            <mxPoint x="1634" y="1340"/>
                        </Array>
                    </mxGeometry>
                </mxCell>
                <mxCell id="134" value="Aurora 1" style="sketch=0;points=[[0,0,0],[0.25,0,0],[0.5,0,0],[0.75,0,0],[1,0,0],[0,1,0],[0.25,1,0],[0.5,1,0],[0.75,1,0],[1,1,0],[0,0.25,0],[0,0.5,0],[0,0.75,0],[1,0.25,0],[1,0.5,0],[1,0.75,0]];outlineConnect=0;fontColor=#232F3E;gradientColor=#4D72F3;gradientDirection=north;fillColor=#3334B9;strokeColor=#ffffff;dashed=0;verticalLabelPosition=bottom;verticalAlign=top;align=center;html=1;fontSize=12;fontStyle=0;aspect=fixed;shape=mxgraph.aws4.resourceIcon;resIcon=mxgraph.aws4.aurora;glass=1;strokeWidth=2;" vertex="1" parent="1">
                    <mxGeometry x="1439" y="1299" width="78" height="78" as="geometry"/>
                </mxCell>
                <mxCell id="138" style="edgeStyle=none;html=1;entryX=0;entryY=0.5;entryDx=0;entryDy=0;entryPerimeter=0;labelBackgroundColor=#ffffff;strokeColor=#000000;strokeWidth=2;fontColor=#000000;endSize=6;" edge="1" parent="1" source="136" target="134">
                    <mxGeometry relative="1" as="geometry">
                        <Array as="points">
                            <mxPoint x="1350" y="1338"/>
                        </Array>
                    </mxGeometry>
                </mxCell>
                <mxCell id="136" value="" style="sketch=0;outlineConnect=0;fontColor=#232F3E;gradientColor=none;fillColor=#2E27AD;strokeColor=none;dashed=0;verticalLabelPosition=bottom;verticalAlign=top;align=center;html=1;fontSize=12;fontStyle=0;aspect=fixed;pointerEvents=1;shape=mxgraph.aws4.rds_instance;glass=1;strokeWidth=2;" vertex="1" parent="1">
                    <mxGeometry x="1310" y="1146" width="78" height="78" as="geometry"/>
                </mxCell>
                <mxCell id="141" style="edgeStyle=none;html=1;entryX=0;entryY=0.5;entryDx=0;entryDy=0;entryPerimeter=0;labelBackgroundColor=#ffffff;strokeColor=#000000;strokeWidth=2;fontColor=#000000;endSize=6;" edge="1" parent="1" source="136" target="125">
                    <mxGeometry relative="1" as="geometry">
                        <mxPoint x="1359.2223000253234" y="1233.9025044316168" as="sourcePoint"/>
                        <mxPoint x="1480" y="1369" as="targetPoint"/>
                        <Array as="points">
                            <mxPoint x="1349" y="1052"/>
                        </Array>
                    </mxGeometry>
                </mxCell>
            </root>
        </mxGraphModel>
    </diagram>
</mxfile>